<?xml version="1.0" encoding="UTF-8"?>
<svg id="Layer_2" data-name="Layer 2" xmlns="http://www.w3.org/2000/svg" viewBox="0 0 363.1 980.29">
  <defs>
    <style>
      .cls-1 {
        fill: #fff;
      }

      .cls-2 {
        fill: #6c8c64;
      }
    </style>
  </defs>
  <g id="Layer_1-2" data-name="Layer 1">
    <g>
      <polygon class="cls-2" points="363.1 0 363.1 980.29 181.56 700.87 0 980.29 0 0 363.1 0"/>
      <g>
        <g>
          <path class="cls-1" d="M194.24,87.84c-.03.28-.12,1.14-.28,1.87-3.22,14.4-11.84,25.07-11.84,25.07-4.68,5.74-10.45,10.65-17.02,14.47-2.03,1.18-4.14,2.26-6.31,3.22-1.97.87-3.99,1.66-6.07,2.34-.07.02-.14.05-.21.07-.22.07-.45.14-.67.21-3.36,1.01-6.14,1.56-7.92,1.9-2.17.41-4.27.7-6.28.9-.19.03-.37.04-.56.06-.41.04-.82.07-1.23.09-.33.02-.66.04-.98.06-1.08.05-2.16.07-3.26.07-3.07,0-6.09-.21-9.04-.6,6.46-1.09,11.65-2.92,15.33-4.5t.02,0c.1-.05.21-.08.32-.14.22-.09.48-.21.76-.34.14-.06.29-.13.44-.2.14-.07.28-.12.42-.2,3.22-1.45,6.3-3.15,9.18-5.09,2.22-1.48,4.34-3.1,6.32-4.82,1.11-.97,2.18-1.97,3.21-3.02.07-.06.12-.11.18-.17,3.81-3.64,5.72-5.46,5.57-6.49h0c-.55-3.48-10.65-5.29-21.64-5.71-4.23-.15-8.57-.1-12.55.15-.15,0-.3.02-.45.03-4.29.28-7.8.77-10.17,1.15.21-1.91,1.04-8.12,5.11-14.26,1.41-2.13,3.2-4.24,5.49-6.17.31-.26.62-.51.94-.75,1.39-1.08,2.88-2,4.44-2.75,3.83-1.88,8.09-2.84,12.4-2.86,10.85-.05,20.3-.07,27.57-.05,7.48.08,13.02.18,15.37.14.66,0,1.87.03,2.68.84,1.16,1.19.94,3.49.75,5.46Z"/>
          <path class="cls-1" d="M262.7,68.49v.12c-.16,19.88-10.87,42.01-29.54,55.67-.01.01-.03.02-.04.03-.81.57-1.63,1.13-2.47,1.66-2.61,1.69-5.35,3.23-8.19,4.59-7.05,3.4-14.77,5.79-22.92,6.92-.55.08-1.09.14-1.64.21-.04.01-.09.01-.13.01-.09.01-.16.02-.25.02-7.09.75-12.82.42-15.97.13.21-.02.43-.04.65-.08.23-.02.45-.04.68-.09,11.72-1.34,22.6-5.24,31.96-11.08.08-.05.15-.1.23-.14h.01c2.77-1.57,5.69-3.39,8.54-5.64,3.45-2.75,6.79-6.14,9.64-10.54.01-.02.02-.04.04-.07,8.27-12.84,11.82-33.29,2.61-41.17-4.96-4.25-12.18-3.59-13.78-3.38-8.85,1.16-14.09,8.14-15.35,9.94,5.07-24.45,17.58-41.45,30.34-42.49.2-.02.4-.03.59-.04,6.25-.27,11.95,3.32,12.38,3.59,5.03,3.24,7.91,8.12,9.64,12.9.01.01.01.03.01.04,1.88,6,2.91,12.33,2.95,18.89Z"/>
          <path class="cls-1" d="M331.84,58.11v-.03c-1.95-9.84-6.73-23.38-15.63-24.33-2.69-.29-5.6.59-8.47,2.47-5.8,3.8-11.38,11.69-14.43,22.21-.06,2.09.16,5.55,2.2,8.7,4.52,6.95,13.69,4.94,17.36,10.33,1.5,2.2,1.64,4.96,1.09,7.87h0s-.01.03-.01.04c-.54,2.87-1.75,5.89-2.97,8.65-.09.19-.17.39-.25.58-.24.55-.49,1.1-.73,1.62-.2.45-.41.9-.63,1.33-.02.03-.03.08-.06.11-2.29,4.74-5.06,8.9-8.02,12.54-.21.27-.42.53-.64.79-.06.08-.12.14-.18.22-.03.03-.07.08-.1.11-.24.29-.48.56-.73.85-.53.61-1.06,1.2-1.59,1.76-.27.29-.54.58-.82.86-.12.13-.25.25-.39.39-.37.39-.74.76-1.12,1.12-4.02,4.01-8.56,7.56-13.51,10.55-.5.32-1,.62-1.51.91-.27.16-.53.31-.81.47-.8.45-1.53.85-2.16,1.18-.25.14-.51.27-.76.41-.19.09-.37.18-.53.25-.19.1-.37.18-.52.25-.15.08-.3.14-.43.21-.31.14-.63.3-.96.45-.02.01-.04.02-.07.03-.54.25-1.13.51-1.75.78-.6.27-1.22.52-1.84.76-.42.17-.85.34-1.31.51-.47.18-.93.35-1.42.52-1.11.4-2.29.79-3.54,1.17-.3.09-.61.18-.92.27-.92.27-1.86.53-2.86.78-.65.17-1.32.33-1.99.48-.23.06-.45.1-.7.16-.47.1-.94.19-1.43.29-.37.08-.75.14-1.12.21-.86.17-1.75.31-2.65.44-.1.01-.21.03-.32.04-.14.02-.29.04-.44.07-.19.03-.37.06-.55.07-.39.06-.8.11-1.2.15-.06,0-.1.01-.16.01-.13.02-.28.04-.42.06,2.91.29,10.07.85,19.16-.37.69-.09,1.37-.2,2.05-.31.78-.12,1.56-.27,2.36-.41.5-.1,1.01-.2,1.52-.31.09-.02.19-.04.29-.06.09-.02.18-.04.27-.07,11.15-2.52,21.33-7.38,29.9-13.96.29-.22.58-.45.86-.69.09-.07.18-.13.25-.21,8.58-7.07,16.27-16.77,21.12-27.78.02-.04.04-.1.06-.14,3.21-7.77,4.97-16.22,4.97-25.05,0-3.51-.28-6.95-.82-10.32ZM315.72,60.65c-.45.49-1.01.87-1.66,1.14-7.73,1.87-11.31-10.89-3.58-13.22.96-.24,1.85-.22,2.62,0,4.33,1.28,5.78,8.8,2.61,12.08Z"/>
        </g>
        <path class="cls-1" d="M298.74,145.46c-15.98,4.21-32.37,6.8-48.87,7.67,15.97-4.22,32.37-6.79,48.87-7.67h0Z"/>
      </g>
    </g>
  </g>
</svg>